<svg xmlns="http://www.w3.org/2000/svg" preserveAspectRatio="xMidYMid meet" viewBox="0 0 310.5 98.5">
    <path id="logo-text" d="M120.6 44.1c-1.1 2.1-2.7 3.7-4.8 4.9-2.1 1.1-4.6 1.7-7.5 1.7-4.9 0-8.8-1.5-11.7-4.5-2.9-3-4.4-7-4.4-12.1s1.5-9.2 4.4-12.2 7-4.4 12.1-4.4c3.9 0 7.2 1 9.8 3 2.6 2 4 4.6 4.3 7.9h-3.3c-.5-2.5-1.7-4.5-3.5-5.8-1.9-1.3-4.3-2-7.4-2-4.1 0-7.3 1.2-9.6 3.6-2.3 2.4-3.5 5.7-3.5 9.9 0 4.1 1.2 7.4 3.5 9.9 2.3 2.4 5.5 3.7 9.4 3.7 3.3 0 6.1-1 8.4-2.9s3.4-4.2 3.4-6.9v-1.6h-9.9v-2.7h13.1v16.3h-2.5l-.3-5.8h0zm30.5-7h14.4L158.4 21l-7.3 16.1h0zm-9 12.8l14.5-31.5h3.6l14.3 31.5h-3.2l-4.4-9.7h-17.2l-4.4 9.7h-3.2 0zm66.3-28.6h-11.2v12.1h11.6c3 0 5.2-.5 6.5-1.4 1.3-1 2-2.5 2-4.6 0-2.2-.7-3.7-2-4.6-1.3-1.1-3.6-1.5-6.9-1.5h0zm-14.3 28.6V18.4h15.1c3.7 0 6.6.7 8.5 2.1s2.8 3.5 2.8 6.3c0 2.1-.4 3.8-1.3 5-.9 1.3-2.3 2.2-4.1 2.8 1.6.3 2.8.8 3.4 1.6.7.8 1.2 2.3 1.4 4.4.1.8.2 1.9.3 3.4.2 3 .6 5 1.2 5.8h-3.7c-.4-1.2-.7-2.9-.8-5.1-.1-2.2-.2-3.5-.3-4.1-.2-1.6-.8-2.7-1.7-3.3-.9-.7-2.4-1-4.5-1h-13.2v13.5l-3.1.1h0zm48.4 0V18.4h5L260.8 47l13.5-28.6h4.6v31.5h-3.1l.1-28.8-13.4 28.8H259l-13.7-28.8.3 28.8h-3.1z" stroke-width=".72" stroke-miterlimit="22.926"/>
    <linearGradient id="a" gradientUnits="userSpaceOnUse" x1="47.544" y1="66.121" x2="23.73" y2="92.677" gradientTransform="matrix(1 0 0 -1 0 100)">
        <stop offset="0" stop-color="#0095c1"/>
        <stop offset="1" stop-color="#80d3f1"/>
    </linearGradient>
    <path d="M37.2 73.8c-11-11.8-21.9-30.5-21.9-47v-12h61.3v6H21.3v6c0 5 1.1 9.9 2.7 14.6 3.4 9.6 10.5 20.8 17.6 28.4l4.4 4.7 4.4-4.7c4.4-4.7 9.3-10.7 12.4-17.2C70.9 36 51.9 27 27.6 26.8h49.1c0 16.6-10.9 35.3-21.9 47.1L46 83.2l-8.8-9.4z" fill="url(#a)"/>
    <path id="logo-subtext" d="M92.2 81.7l.7-1c.7.5 1.4.9 2.2 1.2.7.3 1.5.4 2.2.4.9 0 1.6-.2 2.2-.6s.8-.9.8-1.5c0-.5-.2-.9-.6-1.2-.4-.3-1-.5-1.7-.6-.2 0-.4 0-.7-.1-1.6-.1-2.7-.3-3.3-.6-.5-.2-.8-.5-1-.8s-.4-.7-.4-1.2c0-.8.4-1.4 1.1-1.9s1.6-.8 2.7-.8c.8 0 1.6.1 2.4.4s1.6.7 2.3 1.2l-.7 1c-.6-.5-1.2-.9-1.9-1.1-.7-.2-1.3-.4-2-.4s-1.3.1-1.8.4-.7.6-.7 1.1c0 .2 0 .3.1.5.1.1.2.3.4.4.4.3 1.3.5 2.6.6.6 0 1.1.1 1.4.1 1 .1 1.8.4 2.4 1 .6.5.9 1.2.9 1.9 0 .9-.4 1.7-1.2 2.3-.8.6-1.8.9-3.1.9-1 0-1.9-.1-2.7-.4-1.1-.2-1.9-.6-2.6-1.2zm14.2 1.5v-7.6h7.1v1.1h-5.9v1.9h3.9v1.1h-3.9v2.4h6.2v1.1h-7.4zm16.8-2.9v-1.1h3.1v2.3c-.4.6-1 1.1-1.7 1.5-.7.3-1.5.5-2.4.5-1.4 0-2.5-.4-3.4-1.1-.9-.8-1.3-1.7-1.3-2.9s.4-2.1 1.3-2.9 2-1.1 3.4-1.1c.9 0 1.6.2 2.3.5.7.3 1.2.7 1.7 1.3l-.9.7c-.3-.4-.8-.7-1.3-1-.5-.2-1.1-.4-1.8-.4-1 0-1.9.3-2.5.8-.7.6-1 1.2-1 2.1 0 .8.3 1.5 1 2.1.7.5 1.5.8 2.5.8.6 0 1.3-.1 1.8-.4.6-.2.9-.5 1.2-.9v-.8h-2zm7.9-4.6h1.2v4.8c0 .7.2 1.2.5 1.5s1 .4 2 .4 1.7-.1 2-.4.5-.7.5-1.5v-4.8h1.2v5.2c0 .9-.3 1.6-.9 2-.6.4-1.5.6-2.9.6-1.3 0-2.3-.2-2.9-.6-.6-.4-.9-1.1-.9-2v-5.2h.2zm13.9 3.1h4c.4 0 .7-.1.9-.3.2-.2.3-.4.3-.8 0-.3-.1-.6-.3-.8-.2-.2-.5-.3-.9-.3h-4v2.2zm0 1.1v3.3h-1.2v-7.5h5.2c.8 0 1.4.2 1.8.6.4.4.7.9.7 1.6 0 .5-.2 1-.5 1.4s-.8.6-1.4.7l2.1 3.3h-1.3l-2.1-3.3-3.3-.1zm11.2 3.3v-7.6h1.2v7.6h-1.2zm9.8-7.6c1.2 0 2.2.4 3 1.1s1.1 1.6 1.1 2.8c0 1.1-.4 2-1.1 2.7-.7.7-1.7 1-3 1h-3.3v-7.6h3.3zm0 1.1h-2.2v5.4h2.2c.9 0 1.6-.2 2.1-.7s.8-1.1.8-2c0-.8-.3-1.4-.8-1.9s-1.2-.8-2.1-.8zm9.9 3.6h3l-1.5-2.9-1.5 2.9zm-2.8 2.9l3.8-7.6h.7l3.9 7.6h-1.3l-1-1.9h-4l-1 1.9h-1.1zm15.6-7.6c1.2 0 2.2.4 3 1.1s1.1 1.6 1.1 2.8c0 1.1-.4 2-1.1 2.7-.7.7-1.7 1-3 1h-3.3v-7.6h3.3zm0 1.1h-2.2v5.4h2.2c.9 0 1.6-.2 2.1-.7s.8-1.1.8-2c0-.8-.3-1.4-.8-1.9s-1.2-.8-2.1-.8zm20.6 1.1h4.3c.6 0 1.1-.1 1.4-.4.3-.3.5-.7.5-1.2s-.2-.9-.5-1.2c-.3-.3-.8-.4-1.3-.4h-4.4v3.2zm-1.2 5.4v-9.8h5.6c.9 0 1.7.2 2.2.7s.8 1.1.8 1.9-.3 1.5-.8 2.1c-.5.5-1.2.8-2.1.8h-4.6v4.3h-1.1zm14-4.4h4c.4 0 .7-.1.9-.3.2-.2.3-.4.3-.8 0-.3-.1-.6-.3-.8-.2-.2-.5-.3-.9-.3h-4v2.2zm0 1.1v3.3h-1.2v-7.5h5.2c.8 0 1.4.2 1.8.6.4.4.7.9.7 1.6 0 .5-.2 1-.5 1.4s-.8.6-1.4.7l2.1 3.3h-1.3l-2.1-3.3-3.3-.1zm11.2 3.3v-7.6h1.2v7.6h-1.2zm9.7 0h-.6l-3.8-7.6h1.3l2.8 5.7 2.8-5.7h1.3l-3.8 7.6zm8.4-2.9h3l-1.5-2.9-1.5 2.9zm-2.7 2.9l3.8-7.6h.7l3.9 7.6h-1.3l-1-1.9h-4l-1 1.9h-1.1zm15.6-7.6c1.2 0 2.2.4 3 1.1s1.1 1.6 1.1 2.8c0 1.1-.4 2-1.1 2.7s-1.7 1-3 1H261v-7.6h3.3zm0 1.1h-2.2v5.4h2.2c.9 0 1.6-.2 2.1-.7s.8-1.1.8-2c0-.8-.3-1.4-.8-1.9-.6-.5-1.3-.8-2.1-.8zm9.8 3.6h3l-1.5-2.9-1.5 2.9zm-2.7 2.9l3.8-7.6h.7l3.9 7.6h-1.3l-1-1.9h-4l-1 1.9h-1.1z" fill="#666"/>
    <path fill="#0097c1" d="M185.6 60.5l93.6 1.5-93.6 1.6L92 62z"/>
</svg>
