<svg xmlns="http://www.w3.org/2000/svg" viewBox="0 0 1305 400" preserveAspectRatio="xMidYMid meet">
    <style>
        .st0{fill:#e0eeff}.st1{fill:#c2dfff}.st3{fill:#fff}.st4{fill:#6d4c41}.st5{fill:#26a69a}.st6{fill:#f9a825}.st8{fill:#90a4ae}.st9{fill:#fafafa}.st10{fill:#046d8b}.st12{fill:#782b19}.st13{fill:#5d9201}.st14{fill:#8db514}.st15{fill:#ff9c9c}.st16{fill:#8d6e63}.st19{font-size:1rem; font-family: 'Fira Sans', -apple-system, BlinkMacSystemFont, 'Segoe UI', Roboto, 'Helvetica Neue', Arial, sans-serif; text-transform: uppercase; font-size: .8rem;}
    </style>
    <g id="Layer_2">
        <path class="st0" d="M782.9 189.9c0-29.9 21.2-54.5 48.5-58.1-.2-2-.4-4-.4-6 0-35.6 36.5-64.5 81.6-64.5 39.8 0 72.9 22.6 80.1 52.4 6.7-2.9 14-4.4 21.7-4.4 28.8 0 52.4 22.1 55 50.2 6.8-3 14.2-4.6 22.1-4.6 30.5 0 55.2 24.7 55.2 55.2 0 30.5-24.7 41.1-55.2 41.1H833.4c-28.3-2.7-50.5-30.8-50.5-61.3z"/>
        <path class="st1" d="M821.7 223.9c2.1 0 4.1.2 6.1.6 5.6-13.4 19.6-22.9 36-22.9 16.5 0 30.5 9.6 36.1 23h.5c17.5 0 31.6 13.1 31.6 29.2S917.8 283 900.4 283c-4.1 0-73.9.6-78.7.6-17.9 0-32.3-13.4-32.3-29.9s14.5-29.8 32.3-29.8zM1038.3 223.9c2.1 0 4.1.2 6.1.6 5.6-13.4 19.6-22.9 36-22.9 16.5 0 30.5 9.6 36.1 23h.5c17.5 0 31.6 13.1 31.6 29.2S1134.4 283 1117 283c-4.1 0-73.9.6-78.7.6-17.9 0-32.3-13.4-32.3-29.9s14.5-29.8 32.3-29.8z"/>
        <path fill="#ffa726" d="M1223.6 257.9h76.5v102.2h-76.5z"/>
        <path class="st3" d="M1251.1 276.1h-7.1v-9.8c0-2 1.6-3.5 3.5-3.5 2 0 3.5 1.6 3.5 3.5v9.8zM1260.6 276.1h-7.1v-9.8c0-2 1.6-3.5 3.5-3.5 2 0 3.5 1.6 3.5 3.5v9.8zM1270.1 276.1h-7.1v-9.8c0-2 1.6-3.5 3.5-3.5 2 0 3.5 1.6 3.5 3.5v9.8zM1279.6 276.1h-7.1v-9.8c0-2 1.6-3.5 3.5-3.5 2 0 3.5 1.6 3.5 3.5v9.8zM1234.5 280.2h54.7v3.4h-54.7zM1234.5 297.2h54.7v3.4h-54.7zM1234.5 305.7h10.6v14.9h-10.6zM1249.2 305.7h10.6v14.9h-10.6zM1263.9 305.7h10.6v14.9h-10.6zM1278.6 305.7h10.6v14.9h-10.6zM1234.5 325.4h10.6v14.9h-10.6zM1249.2 325.4h10.6v14.9h-10.6zM1263.9 325.4h10.6v14.9h-10.6zM1278.6 325.4h10.6v14.9h-10.6z"/>
        <path class="st4" d="M1234.5 318.6h10.6v2h-10.6zM1249.2 318.6h10.6v2h-10.6zM1263.9 318.6h10.6v2h-10.6zM1278.6 318.6h10.6v2h-10.6zM1234.5 338.3h10.6v2h-10.6zM1249.2 338.3h10.6v2h-10.6zM1263.9 338.3h10.6v2h-10.6zM1278.6 338.3h10.6v2h-10.6zM1247.5 360.1h-12.4v-9.3c0-3.4 2.8-6.2 6.2-6.2 3.4 0 6.2 2.8 6.2 6.2v9.3zM1223.6 249.4h76.5v8.5h-76.5z"/>
        <g>
            <path class="st4" d="M1235.1 286.1h11.5v8.6h-11.5zM1249.2 286.1h11.5v8.6h-11.5zM1263.2 286.1h11.5v8.6h-11.5zM1277.3 286.1h11.5v8.6h-11.5z"/>
        </g>
        <g>
            <path transform="rotate(-180 1085.102 314.57)" class="st3" d="M1039.9 267.9h90.4v93.3h-90.4z"/>
            <path class="st4" d="M1050.4 237.9h69.4l10.4 30.5H1040z"/>
            <path class="st5" d="M1040 268.4h37.3v92.8H1040z"/>
            <path transform="rotate(-180 1117.03 283.277)" class="st6" d="M1112.8 276.1h8.4v14.3h-8.4z"/>
            <path transform="rotate(-180 1103.802 283.277)" class="st6" d="M1099.6 276.1h8.4v14.3h-8.4z"/>
            <path transform="rotate(-180 1090.575 283.277)" class="st6" d="M1086.4 276.1h8.4v14.3h-8.4z"/>
            <path transform="rotate(-180 1117.03 304.25)" class="st6" d="M1112.8 297.1h8.4v14.3h-8.4z"/>
            <path transform="rotate(-180 1103.802 304.25)" class="st6" d="M1099.6 297.1h8.4v14.3h-8.4z"/>
            <path transform="rotate(-180 1090.575 304.25)" class="st6" d="M1086.4 297.1h8.4v14.3h-8.4z"/>
            <path transform="rotate(-180 1117.03 324.222)" class="st6" d="M1112.8 317.1h8.4v14.3h-8.4z"/>
            <path transform="rotate(-180 1103.802 324.222)" class="st6" d="M1099.6 317.1h8.4v14.3h-8.4z"/>
            <path transform="rotate(-180 1090.575 324.222)" class="st6" d="M1086.4 317.1h8.4v14.3h-8.4z"/>
            <path transform="rotate(-180 1065.954 280.789)" class="st3" d="M1061.3 276.9h9.3v7.8h-9.3z"/>
            <path transform="rotate(-180 1051.387 280.789)" class="st3" d="M1046.8 276.9h9.3v7.8h-9.3z"/>
            <path transform="rotate(-180 1065.954 291.83)" class="st4" d="M1061.3 287.9h9.3v7.8h-9.3z"/>
            <path transform="rotate(-180 1051.387 291.83)" class="st3" d="M1046.8 287.9h9.3v7.8h-9.3z"/>
            <path transform="rotate(-180 1065.954 302.872)" class="st4" d="M1061.3 299h9.3v7.8h-9.3z"/>
            <path transform="rotate(-180 1051.387 302.872)" class="st4" d="M1046.8 299h9.3v7.8h-9.3z"/>
            <path transform="rotate(-180 1065.954 313.913)" class="st3" d="M1061.3 310h9.3v7.8h-9.3z"/>
            <path transform="rotate(-180 1051.387 313.913)" class="st3" d="M1046.8 310h9.3v7.8h-9.3z"/>
            <path transform="rotate(-180 1065.954 324.954)" class="st3" d="M1061.3 321.1h9.3v7.8h-9.3z"/>
            <path transform="rotate(-180 1051.387 324.954)" class="st3" d="M1046.8 321.1h9.3v7.8h-9.3z"/>
            <path transform="rotate(-180 1103.632 350.446)" class="st4" d="M1096.3 339.7h14.6v21.6h-14.6z"/>
            <path transform="rotate(-180 1103.82 291.416)" class="st4" d="M1082.2 289.7h43.2v3.4h-43.2z"/>
            <path transform="rotate(-180 1103.82 312.311)" class="st4" d="M1082.2 310.6h43.2v3.4h-43.2z"/>
            <path class="st4" d="M1082.2 330.5v3.4h43.2v-3.4"/>
            <path class="st3" d="M1112.2 257.7h7.9v6.6h-7.9zM1100.2 257.7h7.9v6.6h-7.9zM1088.2 257.7h7.9v6.6h-7.9z"/>
            <path class="st5" d="M1064 230.1h6.7v13.5h-6.7z"/>
            <path class="st5" d="M1062.6 229.3h9.4v2.6h-9.4z"/>
        </g>
        <g>
            <path fill="#ededed" d="M1152.2 213.8h49.1V248h-49.1z"/>
            <path class="st4" d="M1152.2 213.8l24.5-12.8 24.6 12.8zM1168.1 220.6h6.6v13.1h-6.6zM1178.7 220.6h6.6v13.1h-6.6z"/>
            <path class="st8" d="M1137.2 228.8h79.2V362h-79.2z"/>
            <path class="st9" d="M1147.3 250.6h10.4V261h-10.4zM1163.9 250.6h10.4V261h-10.4zM1180.6 250.6h10.4V261h-10.4zM1197.2 250.6h10.4V261h-10.4zM1147.3 267.8h10.4v10.4h-10.4zM1163.9 267.8h10.4v10.4h-10.4zM1180.6 267.8h10.4v10.4h-10.4zM1197.2 267.8h10.4v10.4h-10.4z"/>
            <path class="st4" d="M1137.2 286.4h79.2v5.5h-79.2z"/>
            <g>
                <path class="st9" d="M1147.3 298.1h16.7v22.4h-16.7zM1170.4 298.1h16.7v22.4h-16.7zM1193.5 298.1h16.7v22.4h-16.7z"/>
            </g>
            <g>
                <path class="st10" d="M1147.3 316.4h16.7v4.1h-16.7zM1170.4 316.4h16.7v4.1h-16.7zM1193.5 316.4h16.7v4.1h-16.7z"/>
            </g>
            <path d="M1187.7 370.3h-26.2v-21.4c0-7.2 5.9-13.1 13.1-13.1 7.2 0 13.1 5.9 13.1 13.1v21.4z" fill="#e0e0e0"/>
        </g>
        <g>
            <path class="st0" d="M531.6 191.5c0-29.9-21.2-54.5-48.5-58.1.2-2 .4-4 .4-6 0-35.6-36.5-64.5-81.6-64.5-39.8 0-72.9 22.6-80.1 52.4-6.7-2.9-14-4.4-21.7-4.4-28.8 0-52.4 22.1-55 50.2-6.8-3-14.2-4.6-22.1-4.6-30.5 0-55.2 24.7-55.2 55.2 0 30.5 24.7 41.1 55.2 41.1h258.1c28.4-2.7 50.5-30.8 50.5-61.3z"/>
            <path class="st1" d="M492.8 225.5c-2.1 0-4.1.2-6.1.6-5.6-13.4-19.6-22.9-36-22.9-16.5 0-30.5 9.6-36.1 23h-.5c-17.5 0-31.6 13.1-31.6 29.2s14.2 29.2 31.6 29.2c4.1 0 73.9.6 78.7.6 17.9 0 32.3-13.4 32.3-29.9.1-16.5-14.4-29.8-32.3-29.8zM276.2 225.5c-2.1 0-4.1.2-6.1.6-5.6-13.4-19.6-22.9-36-22.9-16.5 0-30.5 9.6-36.1 23h-.5c-17.5 0-31.6 13.1-31.6 29.2s14.2 29.2 31.6 29.2c4.1 0 73.9.6 78.7.6 17.9 0 32.3-13.4 32.3-29.9s-14.5-29.8-32.3-29.8z"/>
        </g>
        <g>
            <path class="st12" d="M81.2 319h3.9v34.4h-3.9z"/>
            <path class="st13" d="M97 316.3c0-.3.1-.6.1-.9 0-4.2-2.8-7.7-6.7-8.7v-.4c0-3.8-3.1-6.9-6.9-6.9-3.8 0-6.9 3.1-6.9 6.9v.4c-3.8 1-6.7 4.5-6.7 8.7 0 .3.1.6.1.9-5.1.8-9 5.2-9 10.5 0 5.9 4.8 10.6 10.6 10.6 2.2 0 4.2-.7 5.9-1.8 1.7 1.1 3.7 1.8 5.9 1.8s4.2-.7 5.9-1.8c1.7 1.1 3.7 1.8 5.9 1.8 5.9 0 10.6-4.8 10.6-10.6.1-5.4-3.8-9.7-8.8-10.5z"/>
        </g>
        <g>
            <path class="st12" d="M43.5 300.8h5.7v51h-5.7z"/>
            <path class="st14" d="M66.9 296.8c0-.5.1-.9.1-1.4 0-6.2-4.2-11.4-9.9-12.9 0-.2.1-.3.1-.5 0-5.7-4.6-10.3-10.3-10.3s-10.3 4.6-10.3 10.3c0 .2 0 .3.1.5-5.7 1.6-9.9 6.7-9.9 12.9 0 .5.1.9.1 1.4-7.5 1.2-13.3 7.6-13.3 15.5 0 8.7 7.1 15.8 15.8 15.8 3.3 0 6.3-1 8.8-2.7 2.5 1.7 5.5 2.7 8.8 2.7 3.3 0 6.3-1 8.8-2.7 2.5 1.7 5.5 2.7 8.8 2.7 8.7 0 15.8-7.1 15.8-15.8-.2-7.9-5.9-14.3-13.5-15.5z"/>
        </g>
        <path class="st14" d="M10.3 351.8H106v9.2H10.3z"/>
        <g>
            <path class="st15" d="M33 295.3c0-1.9-1.5-4.7-1.5-4.7s-1.5 2.7-1.5 4.7c0 1.9.7 2.4 1.5 2.4.9-.1 1.5-.5 1.5-2.4z"/>
            <path class="st15" d="M30.1 286.1c0 1.9 1.5 4.7 1.5 4.7s1.5-2.7 1.5-4.7c0-1.9-.7-2.4-1.5-2.4-.9 0-1.5.4-1.5 2.4z"/>
            <path class="st15" d="M27 292.1c1.9 0 4.7-1.5 4.7-1.5s-2.7-1.5-4.7-1.5-2.4.7-2.4 1.5c0 .9.4 1.5 2.4 1.5z"/>
            <path class="st15" d="M36.1 289.2c-1.9 0-4.7 1.5-4.7 1.5s2.7 1.5 4.7 1.5c1.9 0 2.4-.7 2.4-1.5s-.4-1.5-2.4-1.5z"/>
            <path class="st15" d="M29.3 294.9c1.4-1.4 2.3-4.3 2.3-4.3s-2.9.9-4.3 2.3-1.2 2.1-.6 2.7c.5.6 1.3.7 2.6-.7z"/>
            <path class="st15" d="M33.8 286.4c-1.4 1.4-2.3 4.3-2.3 4.3s2.9-.9 4.3-2.3 1.2-2.1.6-2.7c-.5-.5-1.3-.7-2.6.7z"/>
            <path class="st15" d="M27.3 288.5c1.4 1.4 4.3 2.3 4.3 2.3s-.9-2.9-2.3-4.3-2.1-1.2-2.7-.6c-.5.4-.7 1.2.7 2.6z"/>
            <path class="st15" d="M35.8 292.9c-1.4-1.4-4.3-2.3-4.3-2.3s.9 2.9 2.3 4.3 2.1 1.2 2.7.6c.5-.5.7-1.2-.7-2.6z"/>
            <circle class="st12" cx="31.6" cy="290.7" r="1.2"/>
        </g>
        <g>
            <path class="st15" d="M47.4 306.2c0-1.4-1-3.3-1-3.3s-1 1.9-1 3.3.5 1.7 1 1.7 1-.3 1-1.7zM45.3 299.7c0 1.4 1 3.3 1 3.3s1-1.9 1-3.3-.5-1.7-1-1.7-1 .4-1 1.7z"/>
            <path class="st15" d="M43.1 304c1.4 0 3.3-1 3.3-1s-1.9-1-3.3-1-1.7.5-1.7 1 .3 1 1.7 1zM49.6 301.9c-1.4 0-3.3 1-3.3 1s1.9 1 3.3 1 1.7-.5 1.7-1-.3-1-1.7-1z"/>
            <path class="st15" d="M44.8 306c1-1 1.6-3.1 1.6-3.1s-2.1.6-3.1 1.6-.9 1.5-.5 1.9c.5.4 1 .6 2-.4z"/>
            <path class="st15" d="M47.9 299.9c-1 1-1.6 3.1-1.6 3.1s2.1-.6 3.1-1.6.9-1.5.5-1.9c-.5-.4-1-.5-2 .4z"/>
            <path class="st15" d="M43.3 301.4c1 1 3.1 1.6 3.1 1.6s-.6-2.1-1.6-3.1-1.5-.9-1.9-.5c-.4.5-.5 1 .4 2z"/>
            <path class="st15" d="M49.4 304.5c-1-1-3.1-1.6-3.1-1.6s.6 2.1 1.6 3.1 1.5.9 1.9.5c.4-.5.5-1-.4-2z"/>
            <circle class="st12" cx="46.4" cy="303" r=".8"/>
        </g>
        <g>
            <path class="st15" d="M60.3 291.3c0-1.4-1-3.3-1-3.3s-1 1.9-1 3.3.5 1.7 1 1.7 1-.4 1-1.7z"/>
            <path class="st15" d="M58.3 284.8c0 1.4 1 3.3 1 3.3s1-1.9 1-3.3-.5-1.7-1-1.7-1 .3-1 1.7z"/>
            <path class="st15" d="M56.1 289.1c1.4 0 3.3-1 3.3-1s-1.9-1-3.3-1-1.7.5-1.7 1 .3 1 1.7 1z"/>
            <path class="st15" d="M62.5 287c-1.4 0-3.3 1-3.3 1s1.9 1 3.3 1 1.7-.5 1.7-1-.3-1-1.7-1z"/>
            <path class="st15" d="M57.7 291c1-1 1.6-3.1 1.6-3.1s-2.1.6-3.1 1.6-.9 1.5-.5 1.9c.5.5 1.1.6 2-.4zM60.9 285c-1 1-1.6 3.1-1.6 3.1s2.1-.6 3.1-1.6.9-1.5.5-1.9c-.5-.5-1.1-.6-2 .4z"/>
            <path class="st15" d="M56.3 286.5c1 1 3.1 1.6 3.1 1.6s-.6-2.1-1.6-3.1-1.5-.9-1.9-.5c-.5.4-.6 1 .4 2z"/>
            <path class="st15" d="M62.3 289.6c-1-1-3.1-1.6-3.1-1.6s.6 2.1 1.6 3.1 1.5.9 1.9.5c.5-.5.6-1-.4-2z"/>
            <circle class="st12" cx="59.3" cy="288.1" r=".8"/>
        </g>
        <g>
            <path class="st15" d="M75.6 312.1c0-1.6-1.2-3.9-1.2-3.9s-1.2 2.3-1.2 3.9.5 2 1.2 2 1.2-.4 1.2-2z"/>
            <path class="st15" d="M73.2 304.4c0 1.6 1.2 3.9 1.2 3.9s1.2-2.3 1.2-3.9-.5-2-1.2-2-1.2.4-1.2 2zM70.5 309.5c1.6 0 3.9-1.2 3.9-1.2s-2.3-1.2-3.9-1.2-2 .5-2 1.2.4 1.2 2 1.2z"/>
            <path class="st15" d="M78.2 307c-1.6 0-3.9 1.2-3.9 1.2s2.3 1.2 3.9 1.2 2-.5 2-1.2-.3-1.2-2-1.2z"/>
            <path class="st15" d="M72.5 311.8c1.2-1.2 1.9-3.6 1.9-3.6s-2.5.7-3.6 1.9c-1.2 1.2-1 1.8-.5 2.3.4.5 1.1.6 2.2-.6zM76.3 304.7c-1.2 1.2-1.9 3.6-1.9 3.6s2.5-.7 3.6-1.9 1-1.8.5-2.3c-.4-.5-1.1-.6-2.2.6z"/>
            <path class="st15" d="M70.8 306.4c1.2 1.2 3.6 1.9 3.6 1.9s-.7-2.5-1.9-3.6-1.8-1-2.3-.5c-.4.4-.6 1 .6 2.2zM78 310.1c-1.2-1.2-3.6-1.9-3.6-1.9s.7 2.5 1.9 3.6c1.2 1.2 1.8 1 2.3.5.4-.4.5-1-.6-2.2z"/>
            <circle class="st12" cx="74.4" cy="308.3" r="1"/>
        </g>
        <g>
            <path class="st15" d="M22.6 317.4c0-1.7-1.3-4-1.3-4s-1.3 2.4-1.3 4c0 1.7.6 2.1 1.3 2.1s1.3-.4 1.3-2.1zM20 309.4c0 1.7 1.3 4 1.3 4s1.3-2.4 1.3-4-.6-2.1-1.3-2.1-1.3.4-1.3 2.1zM17.3 314.7c1.7 0 4-1.3 4-1.3s-2.4-1.3-4-1.3c-1.7 0-2.1.6-2.1 1.3 0 .7.4 1.3 2.1 1.3z"/>
            <path class="st15" d="M25.3 312.1c-1.7 0-4 1.3-4 1.3s2.4 1.3 4 1.3c1.7 0 2.1-.6 2.1-1.3-.1-.7-.4-1.3-2.1-1.3z"/>
            <path class="st15" d="M19.4 317.1c1.2-1.2 2-3.7 2-3.7s-2.6.8-3.7 2c-1.2 1.2-1.1 1.9-.6 2.4.4.4 1.1.5 2.3-.7zM23.2 309.7c-1.2 1.2-2 3.7-2 3.7s2.6-.8 3.7-2c1.2-1.2 1.1-1.9.6-2.4s-1.1-.5-2.3.7z"/>
            <path class="st15" d="M17.6 311.5c1.2 1.2 3.7 2 3.7 2s-.8-2.6-2-3.7c-1.2-1.2-1.9-1.1-2.4-.6-.4.4-.5 1.1.7 2.3zM25 315.3c-1.2-1.2-3.7-2-3.7-2s.8 2.6 2 3.7c1.2 1.2 1.9 1.1 2.4.6s.5-1.1-.7-2.3z"/>
            <circle class="st12" cx="21.3" cy="313.5" r="1"/>
        </g>
        <g>
            <path class="st15" d="M60.8 324c0-1.9-1.4-4.6-1.4-4.6S58 322.1 58 324s.6 2.3 1.4 2.3c.7 0 1.4-.4 1.4-2.3zM57.9 314.9c0 1.9 1.4 4.6 1.4 4.6s1.4-2.7 1.4-4.6c0-1.9-.6-2.3-1.4-2.3-.7 0-1.4.4-1.4 2.3z"/>
            <path class="st15" d="M54.8 320.9c1.9 0 4.6-1.4 4.6-1.4s-2.7-1.4-4.6-1.4-2.3.6-2.3 1.4c0 .7.4 1.4 2.3 1.4zM63.9 318c-1.9 0-4.6 1.4-4.6 1.4s2.7 1.4 4.6 1.4c1.9 0 2.3-.6 2.3-1.4 0-.7-.4-1.4-2.3-1.4z"/>
            <path class="st15" d="M57.2 323.7c1.4-1.4 2.2-4.3 2.2-4.3s-2.9.9-4.3 2.2c-1.4 1.4-1.2 2.1-.6 2.7.5.6 1.3.7 2.7-.6z"/>
            <path class="st15" d="M61.5 315.2c-1.4 1.4-2.2 4.3-2.2 4.3s2.9-.9 4.3-2.2c1.4-1.4 1.2-2.1.6-2.7-.5-.6-1.3-.7-2.7.6z"/>
            <path class="st15" d="M55.1 317.3c1.4 1.4 4.3 2.2 4.3 2.2s-.9-2.9-2.2-4.3c-1.4-1.4-2.1-1.2-2.7-.6-.6.5-.7 1.3.6 2.7z"/>
            <path class="st15" d="M63.6 321.6c-1.4-1.4-4.3-2.2-4.3-2.2s.9 2.9 2.2 4.3c1.4 1.4 2.1 1.2 2.7.6.6-.5.7-1.3-.6-2.7z"/>
            <circle class="st12" cx="59.4" cy="319.5" r="1.2"/>
        </g>
        <g>
            <path class="st15" d="M94.8 315.3c0-.8-.6-1.9-.6-1.9s-.6 1.1-.6 1.9c0 .8.3 1 .6 1s.6-.2.6-1zM93.6 311.4c0 .8.6 1.9.6 1.9s.6-1.1.6-1.9-.3-1-.6-1c-.3.1-.6.2-.6 1zM92.3 314c.8 0 1.9-.6 1.9-.6s-1.1-.6-1.9-.6c-.8 0-1 .3-1 .6s.2.6 1 .6zM96.1 312.7c-.8 0-1.9.6-1.9.6s1.1.6 1.9.6c.8 0 1-.3 1-.6s-.2-.6-1-.6z"/>
            <path class="st15" d="M93.3 315.1c.6-.6.9-1.8.9-1.8s-1.2.4-1.8.9c-.6.6-.5.9-.3 1.1.3.3.6.4 1.2-.2zM95.1 311.6c-.6.6-.9 1.8-.9 1.8s1.2-.4 1.8-.9c.6-.6.5-.9.3-1.1-.3-.3-.6-.4-1.2.2zM92.4 312.4c.6.6 1.8.9 1.8.9s-.4-1.2-.9-1.8c-.6-.6-.9-.5-1.1-.3-.3.3-.4.7.2 1.2zM96 314.3c-.6-.6-1.8-.9-1.8-.9s.4 1.2.9 1.8.9.5 1.1.3c.3-.3.3-.7-.2-1.2z"/>
            <circle class="st12" cx="94.2" cy="313.4" r=".5"/>
        </g>
        <g>
            <path class="st15" d="M83.7 324.8c0-.8-.6-1.9-.6-1.9s-.6 1.1-.6 1.9c0 .8.3 1 .6 1s.6-.2.6-1zM82.5 321c0 .8.6 1.9.6 1.9s.6-1.1.6-1.9c0-.8-.3-1-.6-1s-.6.1-.6 1z"/>
            <path class="st15" d="M81.2 323.5c.8 0 1.9-.6 1.9-.6s-1.1-.6-1.9-.6c-.8 0-1 .3-1 .6s.2.6 1 .6zM85 322.3c-.8 0-1.9.6-1.9.6s1.1.6 1.9.6c.8 0 1-.3 1-.6s-.2-.6-1-.6z"/>
            <path class="st15" d="M82.2 324.6c.6-.6.9-1.8.9-1.8s-1.2.4-1.8.9-.5.9-.3 1.1c.3.3.6.4 1.2-.2zM84 321.1c-.6.6-.9 1.8-.9 1.8s1.2-.4 1.8-.9.5-.9.3-1.1c-.3-.3-.6-.4-1.2.2zM81.3 321.9c.6.6 1.8.9 1.8.9s-.4-1.2-.9-1.8c-.6-.6-.9-.5-1.1-.3-.3.3-.3.7.2 1.2zM84.9 323.8c-.6-.6-1.8-.9-1.8-.9s.4 1.2.9 1.8c.6.6.9.5 1.1.3.3-.3.4-.6-.2-1.2z"/>
            <circle class="st12" cx="83.1" cy="322.9" r=".5"/>
        </g>
        <g>
            <path class="st15" d="M85.9 305.8c0-.8-.6-1.9-.6-1.9s-.6 1.1-.6 1.9c0 .8.3 1 .6 1 .4-.1.6-.2.6-1zM84.7 301.9c0 .8.6 1.9.6 1.9s.6-1.1.6-1.9c0-.8-.3-1-.6-1s-.6.2-.6 1z"/>
            <path class="st15" d="M83.4 304.4c.8 0 1.9-.6 1.9-.6s-1.1-.6-1.9-.6c-.8 0-1 .3-1 .6 0 .4.2.6 1 .6zM87.2 303.2c-.8 0-1.9.6-1.9.6s1.1.6 1.9.6c.8 0 1-.3 1-.6s-.1-.6-1-.6z"/>
            <path class="st15" d="M84.4 305.6c.6-.6.9-1.8.9-1.8s-1.2.4-1.8.9c-.6.6-.5.9-.3 1.1.3.3.6.4 1.2-.2zM86.3 302.1c-.6.6-.9 1.8-.9 1.8s1.2-.4 1.8-.9c.6-.6.5-.9.3-1.1-.3-.3-.7-.4-1.2.2zM83.6 302.9c.6.6 1.8.9 1.8.9s-.4-1.2-.9-1.8c-.6-.6-.9-.5-1.1-.3-.3.3-.4.6.2 1.2zM87.1 304.8c-.6-.6-1.8-.9-1.8-.9s.4 1.2.9 1.8c.6.6.9.5 1.1.3.3-.3.4-.7-.2-1.2z"/>
            <circle class="st12" cx="85.4" cy="303.9" r=".5"/>
        </g>
        <g>
            <path class="st15" d="M99.9 329.1c0-.8-.6-1.9-.6-1.9s-.6 1.1-.6 1.9c0 .8.3 1 .6 1s.6-.2.6-1zM98.7 325.3c0 .8.6 1.9.6 1.9s.6-1.1.6-1.9c0-.8-.3-1-.6-1s-.6.2-.6 1z"/>
            <path class="st15" d="M97.4 327.8c.8 0 1.9-.6 1.9-.6s-1.1-.6-1.9-.6c-.8 0-1 .3-1 .6s.2.6 1 .6zM101.2 326.6c-.8 0-1.9.6-1.9.6s1.1.6 1.9.6c.8 0 1-.3 1-.6s-.2-.6-1-.6z"/>
            <path class="st15" d="M98.4 329c.6-.6.9-1.8.9-1.8s-1.2.4-1.8.9c-.6.6-.5.9-.3 1.1.3.3.6.3 1.2-.2zM100.2 325.4c-.6.6-.9 1.8-.9 1.8s1.2-.4 1.8-.9c.6-.6.5-.9.3-1.1-.3-.3-.6-.4-1.2.2zM97.5 326.3c.6.6 1.8.9 1.8.9s-.4-1.2-.9-1.8c-.6-.6-.9-.5-1.1-.3-.3.3-.3.6.2 1.2z"/>
            <path class="st15" d="M101.1 328.1c-.6-.6-1.8-.9-1.8-.9s.4 1.2.9 1.8c.6.6.9.5 1.1.3.3-.3.4-.6-.2-1.2z"/>
            <circle class="st12" cx="99.3" cy="327.2" r=".5"/>
        </g>
        <g>
            <path class="st15" d="M72.2 334.2c0-.8-.6-1.9-.6-1.9s-.6 1.1-.6 1.9c0 .8.3 1 .6 1s.6-.2.6-1zM71 330.4c0 .8.6 1.9.6 1.9s.6-1.1.6-1.9c0-.8-.3-1-.6-1s-.6.2-.6 1z"/>
            <path class="st15" d="M69.7 332.9c.8 0 1.9-.6 1.9-.6s-1.1-.6-1.9-.6c-.8 0-1 .3-1 .6 0 .4.2.6 1 .6zM73.5 331.7c-.8 0-1.9.6-1.9.6s1.1.6 1.9.6c.8 0 1-.3 1-.6s-.2-.6-1-.6z"/>
            <path class="st15" d="M70.7 334.1c.6-.6.9-1.8.9-1.8s-1.2.4-1.8.9c-.6.6-.5.9-.3 1.1.3.3.6.4 1.2-.2zM72.5 330.5c-.6.6-.9 1.8-.9 1.8s1.2-.4 1.8-.9c.6-.6.5-.9.3-1.1-.3-.3-.6-.3-1.2.2zM69.8 331.4c.6.6 1.8.9 1.8.9s-.4-1.2-.9-1.8c-.6-.6-.9-.5-1.1-.3-.3.3-.4.6.2 1.2zM73.4 333.2c-.6-.6-1.8-.9-1.8-.9s.4 1.2.9 1.8.9.5 1.1.3c.3-.3.3-.6-.2-1.2z"/>
            <circle class="st12" cx="71.6" cy="332.3" r=".5"/>
        </g>
        <g>
            <path transform="rotate(-180 879.093 336.181)" class="st12" d="M877.2 319h3.9v34.4h-3.9z"/>
            <path class="st13" d="M865.2 316.3c0-.3-.1-.6-.1-.9 0-4.2 2.8-7.7 6.7-8.7v-.4c0-3.8 3.1-6.9 6.9-6.9s6.9 3.1 6.9 6.9v.4c3.8 1 6.7 4.5 6.7 8.7 0 .3-.1.6-.1.9 5.1.8 9 5.2 9 10.5 0 5.9-4.8 10.6-10.6 10.6-2.2 0-4.2-.7-5.9-1.8-1.7 1.1-3.7 1.8-5.9 1.8s-4.2-.7-5.9-1.8c-1.7 1.1-3.7 1.8-5.9 1.8-5.9 0-10.6-4.8-10.6-10.6-.1-5.4 3.8-9.7 8.8-10.5z"/>
            <path transform="rotate(-180 915.833 326.338)" class="st12" d="M913 300.8h5.7v51H913z"/>
            <path class="st14" d="M895.3 296.8c0-.5-.1-.9-.1-1.4 0-6.2 4.2-11.4 9.9-12.9 0-.2-.1-.3-.1-.5 0-5.7 4.6-10.3 10.3-10.3s10.3 4.6 10.3 10.3c0 .2 0 .3-.1.5 5.7 1.6 9.9 6.7 9.9 12.9 0 .5-.1.9-.1 1.4 7.5 1.2 13.3 7.6 13.3 15.5 0 8.7-7.1 15.8-15.8 15.8-3.3 0-6.3-1-8.8-2.7-2.5 1.7-5.5 2.7-8.8 2.7-3.3 0-6.3-1-8.8-2.7-2.5 1.7-5.5 2.7-8.8 2.7-8.7 0-15.8-7.1-15.8-15.8.1-7.9 5.9-14.3 13.5-15.5z"/>
            <path transform="rotate(-180 904.09 356.413)" class="st14" d="M856.3 351.8H952v9.2h-95.7z"/>
            <path class="st15" d="M929.4 295.3c0-1.9 1.5-4.7 1.5-4.7s1.5 2.7 1.5 4.7c0 1.9-.7 2.4-1.5 2.4s-1.5-.5-1.5-2.4z"/>
            <path class="st15" d="M932.3 286.1c0 1.9-1.5 4.7-1.5 4.7s-1.5-2.7-1.5-4.7c0-1.9.7-2.4 1.5-2.4s1.5.4 1.5 2.4z"/>
            <path class="st15" d="M935.5 292.1c-1.9 0-4.7-1.5-4.7-1.5s2.7-1.5 4.7-1.5c1.9 0 2.4.7 2.4 1.5 0 .9-.5 1.5-2.4 1.5z"/>
            <path class="st15" d="M926.3 289.2c1.9 0 4.7 1.5 4.7 1.5s-2.7 1.5-4.7 1.5c-1.9 0-2.4-.7-2.4-1.5s.5-1.5 2.4-1.5z"/>
            <path class="st15" d="M933.1 294.9c-1.4-1.4-2.3-4.3-2.3-4.3s2.9.9 4.3 2.3 1.2 2.1.6 2.7c-.5.6-1.2.7-2.6-.7z"/>
            <path class="st15" d="M928.7 286.4c1.4 1.4 2.3 4.3 2.3 4.3s-2.9-.9-4.3-2.3-1.2-2.1-.6-2.7c.4-.5 1.2-.7 2.6.7z"/>
            <path class="st15" d="M935.2 288.5c-1.4 1.4-4.3 2.3-4.3 2.3s.9-2.9 2.3-4.3 2.1-1.2 2.7-.6c.5.4.6 1.2-.7 2.6zM926.6 292.9c1.4-1.4 4.3-2.3 4.3-2.3s-.9 2.9-2.3 4.3-2.1 1.2-2.7.6c-.5-.5-.7-1.2.7-2.6z"/>
            <circle class="st12" cx="930.8" cy="290.7" r="1.2"/>
            <path class="st15" d="M915.1 306.2c0-1.4 1-3.3 1-3.3s1 1.9 1 3.3-.5 1.7-1 1.7c-.6 0-1-.3-1-1.7z"/>
            <path class="st15" d="M917.1 299.7c0 1.4-1 3.3-1 3.3s-1-1.9-1-3.3.5-1.7 1-1.7c.6 0 1 .4 1 1.7z"/>
            <path class="st15" d="M919.3 304c-1.4 0-3.3-1-3.3-1s1.9-1 3.3-1 1.7.5 1.7 1-.3 1-1.7 1zM912.8 301.9c1.4 0 3.3 1 3.3 1s-1.9 1-3.3 1-1.7-.5-1.7-1c.1-.5.4-1 1.7-1z"/>
            <path class="st15" d="M917.7 306c-1-1-1.6-3.1-1.6-3.1s2.1.6 3.1 1.6.9 1.5.5 1.9c-.5.4-1.1.6-2-.4zM914.5 299.9c1 1 1.6 3.1 1.6 3.1s-2.1-.6-3.1-1.6-.9-1.5-.5-1.9c.5-.4 1.1-.5 2 .4z"/>
            <path class="st15" d="M919.1 301.4c-1 1-3.1 1.6-3.1 1.6s.6-2.1 1.6-3.1 1.5-.9 1.9-.5c.5.5.6 1-.4 2z"/>
            <path class="st15" d="M913.1 304.5c1-1 3.1-1.6 3.1-1.6s-.6 2.1-1.6 3.1-1.5.9-1.9.5c-.5-.5-.6-1 .4-2z"/>
            <circle class="st12" cx="916.1" cy="303" r=".8"/>
            <g>
                <path class="st15" d="M902.1 291.3c0-1.4 1-3.3 1-3.3s1 1.9 1 3.3-.5 1.7-1 1.7-1-.4-1-1.7zM904.2 284.8c0 1.4-1 3.3-1 3.3s-1-1.9-1-3.3.5-1.7 1-1.7 1 .3 1 1.7z"/>
                <path class="st15" d="M906.4 289.1c-1.4 0-3.3-1-3.3-1s1.9-1 3.3-1 1.7.5 1.7 1-.3 1-1.7 1zM899.9 287c1.4 0 3.3 1 3.3 1s-1.9 1-3.3 1-1.7-.5-1.7-1 .3-1 1.7-1z"/>
                <path class="st15" d="M904.7 291c-1-1-1.6-3.1-1.6-3.1s2.1.6 3.1 1.6.9 1.5.5 1.9c-.5.5-1 .6-2-.4z"/>
                <path class="st15" d="M901.6 285c1 1 1.6 3.1 1.6 3.1s-2.1-.6-3.1-1.6-.9-1.5-.5-1.9c.5-.5 1-.6 2 .4z"/>
                <path class="st15" d="M906.2 286.5c-1 1-3.1 1.6-3.1 1.6s.6-2.1 1.6-3.1 1.5-.9 1.9-.5c.4.4.5 1-.4 2z"/>
                <path class="st15" d="M900.1 289.6c1-1 3.1-1.6 3.1-1.6s-.6 2.1-1.6 3.1-1.5.9-1.9.5c-.4-.5-.6-1 .4-2z"/>
                <circle class="st12" cx="903.1" cy="288.1" r=".8"/>
            </g>
            <g>
                <path class="st15" d="M886.8 312.1c0-1.6 1.2-3.9 1.2-3.9s1.2 2.3 1.2 3.9-.5 2-1.2 2c-.6 0-1.2-.4-1.2-2zM889.3 304.4c0 1.6-1.2 3.9-1.2 3.9s-1.2-2.3-1.2-3.9.5-2 1.2-2c.6 0 1.2.4 1.2 2z"/>
                <path class="st15" d="M891.9 309.5c-1.6 0-3.9-1.2-3.9-1.2s2.3-1.2 3.9-1.2 2 .5 2 1.2-.4 1.2-2 1.2zM884.2 307c1.6 0 3.9 1.2 3.9 1.2s-2.3 1.2-3.9 1.2-2-.5-2-1.2.4-1.2 2-1.2z"/>
                <path class="st15" d="M889.9 311.8c-1.2-1.2-1.9-3.6-1.9-3.6s2.5.7 3.6 1.9c1.2 1.2 1 1.8.5 2.3-.4.5-1 .6-2.2-.6z"/>
                <path class="st15" d="M886.2 304.7c1.2 1.2 1.9 3.6 1.9 3.6s-2.5-.7-3.6-1.9c-1.2-1.2-1-1.8-.5-2.3.4-.5 1-.6 2.2.6z"/>
                <path class="st15" d="M891.6 306.4c-1.2 1.2-3.6 1.9-3.6 1.9s.7-2.5 1.9-3.6c1.2-1.2 1.8-1 2.3-.5.5.4.6 1-.6 2.2z"/>
                <path class="st15" d="M884.5 310.1c1.2-1.2 3.6-1.9 3.6-1.9s-.7 2.5-1.9 3.6c-1.2 1.2-1.8 1-2.3.5-.5-.4-.6-1 .6-2.2z"/>
                <circle class="st12" cx="888" cy="308.3" r="1"/>
            </g>
            <g>
                <path class="st15" d="M867.1 315.3c0-.8.6-1.9.6-1.9s.6 1.1.6 1.9c0 .8-.3 1-.6 1-.4 0-.6-.2-.6-1zM868.3 311.4c0 .8-.6 1.9-.6 1.9s-.6-1.1-.6-1.9.3-1 .6-1c.3.1.6.2.6 1zM869.6 314c-.8 0-1.9-.6-1.9-.6s1.1-.6 1.9-.6c.8 0 1 .3 1 .6s-.2.6-1 .6zM865.8 312.7c.8 0 1.9.6 1.9.6s-1.1.6-1.9.6c-.8 0-1-.3-1-.6s.1-.6 1-.6z"/>
                <path class="st15" d="M868.6 315.1c-.6-.6-.9-1.8-.9-1.8s1.2.4 1.8.9c.6.6.5.9.3 1.1-.3.3-.6.4-1.2-.2zM866.7 311.6c.6.6.9 1.8.9 1.8s-1.2-.4-1.8-.9c-.6-.6-.5-.9-.3-1.1.4-.3.7-.4 1.2.2zM869.4 312.4c-.6.6-1.8.9-1.8.9s.4-1.2.9-1.8.9-.5 1.1-.3c.4.3.4.7-.2 1.2zM865.9 314.3c.6-.6 1.8-.9 1.8-.9s-.4 1.2-.9 1.8c-.6.6-.9.5-1.1.3-.3-.3-.4-.7.2-1.2z"/>
                <circle class="st12" cx="867.6" cy="313.4" r=".5"/>
            </g>
            <g>
                <path class="st15" d="M878.1 324.8c0-.8.6-1.9.6-1.9s.6 1.1.6 1.9c0 .8-.3 1-.6 1s-.6-.2-.6-1zM879.3 321c0 .8-.6 1.9-.6 1.9s-.6-1.1-.6-1.9c0-.8.3-1 .6-1 .4 0 .6.1.6 1zM880.7 323.5c-.8 0-1.9-.6-1.9-.6s1.1-.6 1.9-.6c.8 0 1 .3 1 .6s-.2.6-1 .6zM876.8 322.3c.8 0 1.9.6 1.9.6s-1.1.6-1.9.6c-.8 0-1-.3-1-.6s.2-.6 1-.6z"/>
                <path class="st15" d="M879.7 324.6c-.6-.6-.9-1.8-.9-1.8s1.2.4 1.8.9c.6.6.5.9.3 1.1-.3.3-.7.4-1.2-.2zM877.8 321.1c.6.6.9 1.8.9 1.8s-1.2-.4-1.8-.9c-.6-.6-.5-.9-.3-1.1.3-.3.6-.4 1.2.2zM880.5 321.9c-.6.6-1.8.9-1.8.9s.4-1.2.9-1.8c.6-.6.9-.5 1.1-.3.3.3.4.7-.2 1.2zM877 323.8c.6-.6 1.8-.9 1.8-.9s-.4 1.2-.9 1.8c-.6.6-.9.5-1.1.3-.3-.3-.4-.6.2-1.2z"/>
                <circle class="st12" cx="878.7" cy="322.9" r=".5"/>
            </g>
            <g>
                <path class="st15" d="M875.9 305.8c0-.8.6-1.9.6-1.9s.6 1.1.6 1.9c0 .8-.3 1-.6 1-.3-.1-.6-.2-.6-1zM877.1 301.9c0 .8-.6 1.9-.6 1.9s-.6-1.1-.6-1.9c0-.8.3-1 .6-1 .4 0 .6.2.6 1zM878.4 304.4c-.8 0-1.9-.6-1.9-.6s1.1-.6 1.9-.6c.8 0 1 .3 1 .6 0 .4-.2.6-1 .6zM874.6 303.2c.8 0 1.9.6 1.9.6s-1.1.6-1.9.6c-.8 0-1-.3-1-.6s.2-.6 1-.6z"/>
                <path class="st15" d="M877.4 305.6c-.6-.6-.9-1.8-.9-1.8s1.2.4 1.8.9.5.9.3 1.1c-.3.3-.6.4-1.2-.2zM875.6 302.1c.6.6.9 1.8.9 1.8s-1.2-.4-1.8-.9c-.6-.6-.5-.9-.3-1.1.3-.3.6-.4 1.2.2zM878.3 302.9c-.6.6-1.8.9-1.8.9s.4-1.2.9-1.8c.6-.6.9-.5 1.1-.3.3.3.4.6-.2 1.2zM874.7 304.8c.6-.6 1.8-.9 1.8-.9s-.4 1.2-.9 1.8c-.6.6-.9.5-1.1.3-.3-.3-.3-.7.2-1.2z"/>
                <circle class="st12" cx="876.5" cy="303.9" r=".5"/>
            </g>
            <g>
                <path class="st15" d="M861.9 329.1c0-.8.6-1.9.6-1.9s.6 1.1.6 1.9c0 .8-.3 1-.6 1s-.6-.2-.6-1zM863.1 325.3c0 .8-.6 1.9-.6 1.9s-.6-1.1-.6-1.9c0-.8.3-1 .6-1 .4 0 .6.2.6 1zM864.5 327.8c-.8 0-1.9-.6-1.9-.6s1.1-.6 1.9-.6c.8 0 1 .3 1 .6-.1.3-.2.6-1 .6zM860.6 326.6c.8 0 1.9.6 1.9.6s-1.1.6-1.9.6c-.8 0-1-.3-1-.6s.2-.6 1-.6z"/>
                <path class="st15" d="M863.5 329c-.6-.6-.9-1.8-.9-1.8s1.2.4 1.8.9.5.9.3 1.1c-.3.3-.7.3-1.2-.2zM861.6 325.4c.6.6.9 1.8.9 1.8s-1.2-.4-1.8-.9c-.6-.6-.5-.9-.3-1.1.3-.3.6-.4 1.2.2zM864.3 326.3c-.6.6-1.8.9-1.8.9s.4-1.2.9-1.8c.6-.6.9-.5 1.1-.3.3.3.4.6-.2 1.2zM860.8 328.1c.6-.6 1.8-.9 1.8-.9s-.4 1.2-.9 1.8c-.6.6-.9.5-1.1.3-.3-.3-.4-.6.2-1.2z"/>
                <circle class="st12" cx="862.5" cy="327.2" r=".5"/>
            </g>
            <g>
                <path class="st15" d="M889.7 334.2c0-.8.6-1.9.6-1.9s.6 1.1.6 1.9c0 .8-.3 1-.6 1-.4 0-.6-.2-.6-1zM890.9 330.4c0 .8-.6 1.9-.6 1.9s-.6-1.1-.6-1.9c0-.8.3-1 .6-1s.6.2.6 1zM892.2 332.9c-.8 0-1.9-.6-1.9-.6s1.1-.6 1.9-.6c.8 0 1 .3 1 .6 0 .4-.2.6-1 .6zM888.4 331.7c.8 0 1.9.6 1.9.6s-1.1.6-1.9.6c-.8 0-1-.3-1-.6s.2-.6 1-.6z"/>
                <path class="st15" d="M891.2 334.1c-.6-.6-.9-1.8-.9-1.8s1.2.4 1.8.9c.6.6.5.9.3 1.1-.3.3-.6.4-1.2-.2zM889.4 330.5c.6.6.9 1.8.9 1.8s-1.2-.4-1.8-.9c-.6-.6-.5-.9-.3-1.1.3-.3.6-.3 1.2.2zM892.1 331.4c-.6.6-1.8.9-1.8.9s.4-1.2.9-1.8c.6-.6.9-.5 1.1-.3.3.3.3.6-.2 1.2zM888.5 333.2c.6-.6 1.8-.9 1.8-.9s-.4 1.2-.9 1.8c-.6.6-.9.5-1.1.3-.3-.3-.4-.6.2-1.2z"/>
                <circle class="st12" cx="890.3" cy="332.3" r=".5"/>
            </g>
            <g>
                <path class="st15" d="M939.9 317.4c0-1.7 1.3-4 1.3-4s1.3 2.4 1.3 4c0 1.7-.6 2.1-1.3 2.1s-1.3-.4-1.3-2.1zM942.4 309.4c0 1.7-1.3 4-1.3 4s-1.3-2.4-1.3-4 .6-2.1 1.3-2.1 1.3.4 1.3 2.1z"/>
                <path class="st15" d="M945.1 314.7c-1.7 0-4-1.3-4-1.3s2.4-1.3 4-1.3c1.7 0 2.1.6 2.1 1.3 0 .7-.4 1.3-2.1 1.3z"/>
                <path class="st15" d="M937.2 312.1c1.7 0 4 1.3 4 1.3s-2.4 1.3-4 1.3-2.1-.6-2.1-1.3c0-.7.4-1.3 2.1-1.3z"/>
                <path class="st15" d="M943.1 317.1c-1.2-1.2-2-3.7-2-3.7s2.6.8 3.7 2c1.2 1.2 1.1 1.9.6 2.4-.5.4-1.1.5-2.3-.7zM939.2 309.7c1.2 1.2 2 3.7 2 3.7s-2.6-.8-3.7-2c-1.2-1.2-1.1-1.9-.6-2.4.5-.4 1.1-.5 2.3.7z"/>
                <path class="st15" d="M944.9 311.5c-1.2 1.2-3.7 2-3.7 2s.8-2.6 2-3.7c1.2-1.2 1.9-1.1 2.4-.6.3.4.5 1.1-.7 2.3zM937.4 315.3c1.2-1.2 3.7-2 3.7-2s-.8 2.6-2 3.7c-1.2 1.2-1.9 1.1-2.4.6-.3-.4-.4-1.1.7-2.3z"/>
                <circle class="st12" cx="941.1" cy="313.5" r="1"/>
            </g>
            <g>
                <path class="st15" d="M901.7 324c0-1.9 1.4-4.6 1.4-4.6s1.4 2.7 1.4 4.6-.6 2.3-1.4 2.3c-.8 0-1.4-.4-1.4-2.3z"/>
                <path class="st15" d="M904.5 314.9c0 1.9-1.4 4.6-1.4 4.6s-1.4-2.7-1.4-4.6c0-1.9.6-2.3 1.4-2.3.8 0 1.4.4 1.4 2.3z"/>
                <path class="st15" d="M907.6 320.9c-1.9 0-4.6-1.4-4.6-1.4s2.7-1.4 4.6-1.4 2.3.6 2.3 1.4c.1.7-.4 1.4-2.3 1.4z"/>
                <path class="st15" d="M898.6 318c1.9 0 4.6 1.4 4.6 1.4s-2.7 1.4-4.6 1.4c-1.9 0-2.3-.6-2.3-1.4-.1-.7.3-1.4 2.3-1.4z"/>
                <path class="st15" d="M905.3 323.7c-1.4-1.4-2.2-4.3-2.2-4.3s2.9.9 4.3 2.2c1.4 1.4 1.2 2.1.6 2.7s-1.4.7-2.7-.6zM900.9 315.2c1.4 1.4 2.2 4.3 2.2 4.3s-2.9-.9-4.3-2.2-1.2-2.1-.6-2.7c.6-.6 1.3-.7 2.7.6z"/>
                <path class="st15" d="M907.3 317.3c-1.4 1.4-4.3 2.2-4.3 2.2s.9-2.9 2.2-4.3 2.1-1.2 2.7-.6c.6.5.8 1.3-.6 2.7z"/>
                <path class="st15" d="M898.9 321.6c1.4-1.4 4.3-2.2 4.3-2.2s-.9 2.9-2.2 4.3c-1.4 1.4-2.1 1.2-2.7.6-.6-.5-.8-1.3.6-2.7z"/>
                <circle class="st12" cx="903" cy="319.5" r="1.2"/>
            </g>
        </g>
        <g>
            <path class="st16" d="M983.8 279.3h3v81.4h-3z"/>
            <path fill="#a08c53" d="M979.5 356.3H991v4.3h-11.5z"/>
            <path class="st16" d="M986.5 292.6l-2.6-1c1.7-4.5 5.3-7.5 9.5-7.9 4.3-.4 8.5 1.9 11.3 6.2l-2.4 1.5c-2.2-3.5-5.4-5.3-8.6-4.9-3.1.2-5.8 2.5-7.2 6.1z"/>
            <path class="st16" d="M984 292.6c-1.4-3.5-4-5.8-7.2-6.1-3.3-.3-6.4 1.5-8.6 4.9l-2.4-1.5c2.8-4.3 7-6.7 11.3-6.2 4.2.4 7.8 3.4 9.5 7.9l-2.6 1z"/>
            <g>
                <path class="st5" d="M997.5 301.2c0-7 2.7-12.7 6.1-12.7 3.4 0 6.1 5.7 6.1 12.7M960.9 301.2c0-7 2.7-12.7 6.1-12.7 3.4 0 6.1 5.7 6.1 12.7"/>
            </g>
        </g>
        <path class="st14" d="M360.5 360.5l-3.3-2.6 3.3-2.6-2.8-3.2 3.8-1.9-2.1-3.6 4.1-1.2-1.3-4 4.2-.3-.5-4.2 4.2.5.3-4.2 4 1.4 1.1-4.1 3.7 2.1 1.9-3.8 3.2 2.8 2.6-3.4 2.6 3.4 3.2-2.8 1.9 3.8 3.6-2.1 1.2 4.1 4-1.4.3 4.2 4.2-.5-.6 4.2 4.3.3-1.4 4 4.1 1.2-2.1 3.6 3.8 1.9-2.8 3.2 3.4 2.6-3.4 2.6"/>
        <path class="st13" d="M409.8 360.9l-4.6-3.6 4.6-3.5-3.8-4.4 5.2-2.6-2.9-5 5.6-1.6-1.8-5.5 5.8-.4-.8-5.7 5.8.7.4-5.8 5.5 1.8 1.5-5.5 5.1 2.8 2.6-5.2 4.3 3.8 3.6-4.5 3.6 4.5 4.3-3.8 2.6 5.2 5.1-2.8 1.5 5.5 5.5-1.8.4 5.8 5.7-.7-.7 5.7 5.8.4-1.8 5.5 5.6 1.6-2.9 5 5.2 2.6-3.8 4.4 4.6 3.5-4.6 3.6"/>
    </g>
    <g id="Layer_3">
        <path class="st5" d="M117 172.4h54.5v28.3H117z"/>
        <path class="st8" d="M167.4 197.4h15.2v164.4h-76.7V197.4h15.2"/>
        <path transform="rotate(-180 168.01 252.126)" class="st3" d="M166.5 238.8h2.9v26.6h-2.9z"/>
        <path transform="rotate(-180 161.568 252.126)" class="st3" d="M160.1 238.8h2.9v26.6h-2.9z"/>
        <path transform="rotate(-180 155.127 252.126)" class="st3" d="M153.7 238.8h2.9v26.6h-2.9z"/>
        <path transform="rotate(-180 148.685 252.126)" class="st3" d="M147.2 238.8h2.9v26.6h-2.9z"/>
        <path transform="rotate(-180 142.243 252.126)" class="st3" d="M140.8 238.8h2.9v26.6h-2.9z"/>
        <path transform="rotate(-180 135.802 252.126)" class="st3" d="M134.3 238.8h2.9v26.6h-2.9z"/>
        <path transform="rotate(-180 129.36 252.126)" class="st3" d="M127.9 238.8h2.9v26.6h-2.9z"/>
        <path transform="rotate(-180 122.919 252.126)" class="st3" d="M121.4 238.8h2.9v26.6h-2.9z"/>
        <path transform="rotate(-180 116.477 252.126)" class="st3" d="M115 238.8h2.9v26.6H115z"/>
        <g>
            <path class="st3" d="M118.5 293.1H170v6.5h-51.5zM118.5 305.3H170v6.5h-51.5zM118.5 317.5H170v6.5h-51.5z"/>
        </g>
        <g>
            <path class="st3" d="M162.3 271.6h7.2v7.9h-7.2zM152.8 271.6h7.2v7.9h-7.2z"/>
            <path class="st6" d="M143.4 271.6h7.2v7.9h-7.2z"/>
            <path class="st3" d="M133.9 271.6h7.2v7.9h-7.2z"/>
            <path class="st6" d="M124.5 271.6h7.2v7.9h-7.2z"/>
            <path class="st3" d="M115 271.6h7.2v7.9H115z"/>
        </g>
        <g>
            <path class="st3" d="M162.3 223.4h7.2v7.9h-7.2z"/>
            <path class="st6" d="M152.8 223.4h7.2v7.9h-7.2z"/>
            <path class="st3" d="M143.4 223.4h7.2v7.9h-7.2zM133.9 223.4h7.2v7.9h-7.2z"/>
            <path class="st6" d="M124.5 223.4h7.2v7.9h-7.2z"/>
            <path class="st3" d="M115 223.4h7.2v7.9H115z"/>
        </g>
        <g>
            <path class="st3" d="M162.3 211.1h7.2v7.9h-7.2zM152.8 211.1h7.2v7.9h-7.2zM143.4 211.1h7.2v7.9h-7.2z"/>
            <path class="st6" d="M133.9 211.1h7.2v7.9h-7.2z"/>
            <path class="st3" d="M124.5 211.1h7.2v7.9h-7.2z"/>
            <path class="st6" d="M115 211.1h7.2v7.9H115z"/>
        </g>
        <path class="st3" d="M144.3 334.8c-7.1 0-12.9 5.8-12.9 12.9v14.1h25.8v-14.1c0-7.1-5.8-12.9-12.9-12.9z"/>
        <text transform="translate(123.503 190.526)" class="st3 st18 st19">
            hotel
        </text>
        <g>
            <path class="st5" d="M208.5 123.2H263v28.3h-54.5z"/>
            <path fill="#695c8e" d="M258.9 148.2h15.2v214.4h-76.7V148.2h15.2"/>
            <path transform="rotate(-180 259.466 252.903)" class="st3" d="M258 239.6h2.9v26.6H258z"/>
            <path transform="rotate(-180 253.024 252.903)" class="st3" d="M251.6 239.6h2.9v26.6h-2.9z"/>
            <path transform="rotate(-180 246.582 252.903)" class="st3" d="M245.1 239.6h2.9v26.6h-2.9z"/>
            <path transform="rotate(-180 240.14 252.903)" class="st3" d="M238.7 239.6h2.9v26.6h-2.9z"/>
            <path transform="rotate(-180 233.7 252.903)" class="st3" d="M232.2 239.6h2.9v26.6h-2.9z"/>
            <path transform="rotate(-180 227.258 252.903)" class="st3" d="M225.8 239.6h2.9v26.6h-2.9z"/>
            <path transform="rotate(-180 220.816 252.903)" class="st3" d="M219.3 239.6h2.9v26.6h-2.9z"/>
            <path transform="rotate(-180 214.374 252.903)" class="st3" d="M212.9 239.6h2.9v26.6h-2.9z"/>
            <path transform="rotate(-180 207.933 252.903)" class="st3" d="M206.5 239.6h2.9v26.6h-2.9z"/>
            <g>
                <path class="st3" d="M210 293.9h51.5v6.5H210zM210 306.1h51.5v6.5H210zM210 318.3h51.5v6.5H210z"/>
            </g>
            <g>
                <path class="st3" d="M253.7 272.4h7.2v7.9h-7.2zM244.3 272.4h7.2v7.9h-7.2z"/>
                <path class="st6" d="M234.8 272.4h7.2v7.9h-7.2z"/>
                <path class="st3" d="M225.4 272.4h7.2v7.9h-7.2z"/>
                <path class="st6" d="M215.9 272.4h7.2v7.9h-7.2z"/>
                <path class="st3" d="M206.5 272.4h7.2v7.9h-7.2z"/>
            </g>
            <g>
                <path class="st3" d="M253.7 224.2h7.2v7.9h-7.2z"/>
                <path class="st6" d="M244.3 224.2h7.2v7.9h-7.2z"/>
                <path class="st3" d="M234.8 224.2h7.2v7.9h-7.2zM225.4 224.2h7.2v7.9h-7.2z"/>
                <path class="st6" d="M215.9 224.2h7.2v7.9h-7.2z"/>
                <path class="st3" d="M206.5 224.2h7.2v7.9h-7.2z"/>
            </g>
            <g>
                <path class="st3" d="M253.7 211.9h7.2v7.9h-7.2zM244.3 211.9h7.2v7.9h-7.2zM234.8 211.9h7.2v7.9h-7.2z"/>
                <path class="st6" d="M225.4 211.9h7.2v7.9h-7.2z"/>
                <path class="st3" d="M215.9 211.9h7.2v7.9h-7.2z"/>
                <path class="st6" d="M206.5 211.9h7.2v7.9h-7.2z"/>
            </g>
            <path class="st3" d="M235.7 335.6c-7.1 0-12.9 5.8-12.9 12.9v14.1h25.8v-14.1c0-7.1-5.7-12.9-12.9-12.9z"/>
            <text transform="translate(214.959 140.303)" class="st3 st18 st19">
                hotel
            </text>
            <g>
                <path transform="rotate(-180 259.466 189.874)" class="st3" d="M258 176.6h2.9v26.6H258z"/>
                <path transform="rotate(-180 253.024 189.874)" class="st3" d="M251.6 176.6h2.9v26.6h-2.9z"/>
                <path transform="rotate(-180 246.582 189.874)" class="st3" d="M245.1 176.6h2.9v26.6h-2.9z"/>
                <path transform="rotate(-180 240.14 189.874)" class="st3" d="M238.7 176.6h2.9v26.6h-2.9z"/>
                <path transform="rotate(-180 233.7 189.874)" class="st3" d="M232.2 176.6h2.9v26.6h-2.9z"/>
                <path transform="rotate(-180 227.258 189.874)" class="st3" d="M225.8 176.6h2.9v26.6h-2.9z"/>
                <path transform="rotate(-180 220.816 189.874)" class="st3" d="M219.3 176.6h2.9v26.6h-2.9z"/>
                <path transform="rotate(-180 214.374 189.874)" class="st3" d="M212.9 176.6h2.9v26.6h-2.9z"/>
                <path transform="rotate(-180 207.933 189.874)" class="st3" d="M206.5 176.6h2.9v26.6h-2.9z"/>
            </g>
            <g>
                <path class="st3" d="M253.7 160.5h7.2v7.9h-7.2zM244.3 160.5h7.2v7.9h-7.2z"/>
                <path class="st6" d="M234.8 160.5h7.2v7.9h-7.2z"/>
                <path class="st3" d="M225.4 160.5h7.2v7.9h-7.2z"/>
                <path class="st6" d="M215.9 160.5h7.2v7.9h-7.2z"/>
                <path class="st3" d="M206.5 160.5h7.2v7.9h-7.2z"/>
            </g>
        </g>
        <path fill="#536f7e" d="M17.7 361H1292v14.3H17.7z"/>
        <path d="M690.9 243.5c0 33.2-20.4 51.7-33.2 57.1-1.8.7-3.8.7-5.5 0-16.1-6.7-33.2-27.3-33.2-57.1 0-2.9 1.7-5.5 4.4-6.6l28.8-12c1.8-.7 3.8-.7 5.5 0l28.8 12c2.6 1.1 4.4 3.7 4.4 6.6zm-36 47.8c14.1-7 25.9-23.4 26.4-46.2l-26.4-11v57.2z" fill="#0097c1"/>
    </g>
</svg>
